HIERARCHY
ROOT Hips
{
	OFFSET	0.00	0.00	0.00
	CHANNELS 6 Xposition Yposition Zposition Zrotation Xrotation Yrotation
	JOINT LeftUpLeg
	{
		OFFSET	 0.126116	-0.065224	 0.014019
		CHANNELS 3 Zrotation Xrotation Yrotation
		JOINT LeftLeg
		{
			OFFSET	 0.000000	 0.569914	 0.000000
			CHANNELS 3 Zrotation Xrotation Yrotation
			JOINT LeftFoot
			{
				OFFSET	 0.000000	 0.544423	 0.000000
				CHANNELS 3 Zrotation Xrotation Yrotation
				JOINT LeftToeBase
				{
					OFFSET	 0.000000	 0.207117	 0.000000
					CHANNELS 3 Zrotation Xrotation Yrotation
					End Site
					{
						OFFSET	 0.000000	 0.207117	 0.000000
					}
				}
			}
		}
	}
	JOINT RightUpLeg
	{
		OFFSET	-0.124023	-0.065224	 0.008373
		CHANNELS 3 Zrotation Xrotation Yrotation
		JOINT RightLeg
		{
			OFFSET	 0.000000	 0.570047	 0.000000
			CHANNELS 3 Zrotation Xrotation Yrotation
			JOINT RightFoot
			{
				OFFSET	 0.000000	 0.544354	 0.000000
				CHANNELS 3 Zrotation Xrotation Yrotation
				JOINT RightToeBase
				{
					OFFSET	 0.000000	 0.207540	 0.000000
					CHANNELS 3 Zrotation Xrotation Yrotation
					End Site
					{
						OFFSET	 0.000000	 0.207540	 0.000000
					}
				}
			}
		}
	}
	JOINT Spine
	{
		OFFSET	 0.000184	 0.117403	 0.007763
		CHANNELS 3 Zrotation Xrotation Yrotation
		JOINT Spine1
		{
			OFFSET	 0.000000	 0.137269	 0.000000
			CHANNELS 3 Zrotation Xrotation Yrotation
			JOINT Spine2
			{
				OFFSET	 0.000000	 0.156879	 0.000000
				CHANNELS 3 Zrotation Xrotation Yrotation
				JOINT LeftShoulder
				{
					OFFSET	 0.080501	 0.160143	 0.002496
					CHANNELS 3 Zrotation Xrotation Yrotation
					JOINT LeftArm
					{
						OFFSET	 0.000000	 0.164363	 0.000000
						CHANNELS 3 Zrotation Xrotation Yrotation
						JOINT LeftForeArm
						{
							OFFSET	 0.000000	 0.364576	 0.000000
							CHANNELS 3 Zrotation Xrotation Yrotation
							JOINT LeftHand
							{
								OFFSET	 0.000000	 0.360812	 0.000000
								CHANNELS 3 Zrotation Xrotation Yrotation
								JOINT LeftHandIndex1
								{
									OFFSET	 0.000000	 0.086006	 0.000000
									CHANNELS 3 Zrotation Xrotation Yrotation
									JOINT LeftHandIndex2
									{
										OFFSET	 0.000000	 0.047237	 0.000000
										CHANNELS 3 Zrotation Xrotation Yrotation
										JOINT LeftHandIndex3
										{
											OFFSET	-0.004284	 0.038165	 0.000551
											CHANNELS 3 Zrotation Xrotation Yrotation
											End Site
											{
												OFFSET	-0.004284	 0.038165	 0.000551
											}
										}
									}
								}
							}
						}
					}
				}
				JOINT Neck
				{
					OFFSET	 0.000000	 0.176489	 0.000000
					CHANNELS 3 Zrotation Xrotation Yrotation
					JOINT Head
					{
						OFFSET	 0.000000	 0.077941	 0.001747
						CHANNELS 3 Zrotation Xrotation Yrotation
						End Site
						{
							OFFSET	 0.000000	 0.077941	 0.001747
						}
					}
				}
				JOINT RightShoulder
				{
					OFFSET	-0.080363	 0.159706	-0.000306
					CHANNELS 3 Zrotation Xrotation Yrotation
					JOINT RightArm
					{
						OFFSET	 0.000000	 0.164196	 0.000000
						CHANNELS 3 Zrotation Xrotation Yrotation
						JOINT RightForeArm
						{
							OFFSET	 0.000000	 0.365611	 0.000000
							CHANNELS 3 Zrotation Xrotation Yrotation
							JOINT RightHand
							{
								OFFSET	 0.000000	 0.360648	 0.000000
								CHANNELS 3 Zrotation Xrotation Yrotation
								JOINT RightHandIndex1
								{
									OFFSET	 0.000000	 0.069977	 0.000000
									CHANNELS 3 Zrotation Xrotation Yrotation
									JOINT RightHandIndex2
									{
										OFFSET	 0.000000	 0.052305	 0.000000
										CHANNELS 3 Zrotation Xrotation Yrotation
										JOINT RightHandIndex3
										{
											OFFSET	 0.009002	 0.042196	 0.000782
											CHANNELS 3 Zrotation Xrotation Yrotation
											End Site
											{
												OFFSET	 0.009002	 0.042196	 0.000782
											}
										}
									}
								}
							}
						}
					}
				}
			}
		}
	}
}
MOTION
Frames:    4
Frame Time: 0.03333334
-0.064009	 1.189318	-1.568183	-3.209187	 1.385678	-174.151500	 171.509200	 8.833484	-5.639957	 6.334577	-39.709520	 7.263338	 56.960850	 88.324500	-49.681720	 1.513929	 31.260760	-2.812434	 174.372900	 11.044700	 8.107494	-6.574449	-56.673030	 5.689201	 100.523200	 86.350250	-93.752000	-1.669247	 33.145870	 2.886544	-1.439844	 8.601511	-2.783169	 0.396764	 3.551051	-0.793476	-0.235080	-3.943248	-0.749658	-121.358300	 7.444001	 94.045650	 19.555820	 46.588620	-3.358091	 14.215440	-0.728069	 0.006880	 12.236720	-18.120540	 5.322343	 4.626819	 18.865200	-1.656376	-5.863930	 21.478450	 2.374510	 5.331855	 4.347670	-0.168900	-0.168746	-5.011326	-0.142977	-2.101516	-2.043120	-3.140475	 118.421000	-0.025354	-90.820710	 5.817902	 52.564030	-10.145440	-9.745399	-0.381582	 0.026050	-6.493610	-3.567142	-12.605150	-2.428545	 25.921210	 1.331210	 15.836910	 44.911810	-11.816040	-8.529292	 23.918930	-1.222904
-0.063877	 1.189369	-1.569692	-3.227378	 1.316072	-174.087600	 171.502700	 8.688517	-5.636854	 6.341941	-39.569530	 7.365266	 57.071330	 88.253930	-49.793010	 1.518311	 31.315240	-2.814498	 174.210300	 11.854600	 8.311354	-6.739466	-57.228960	 5.599864	 112.530100	 86.012280	-105.488800	-1.671159	 33.168720	 2.887500	-1.438339	 8.556233	-2.835217	 0.383303	 3.546444	-0.811839	-0.231210	-3.953523	-0.750392	-121.356900	 7.498529	 94.072740	 19.047130	 46.486970	-2.877736	 15.376550	-0.786131	 0.022230	 12.006840	-18.698510	 5.311170	 4.633863	 18.888310	-1.660133	-5.863866	 21.498750	 2.376750	 5.332726	 4.368087	-0.168529	-0.169744	-5.015963	-0.138390	-2.084641	-2.066775	-3.142901	 118.413500	-0.057502	-90.805610	 6.777269	 52.515860	-10.809540	-10.635520	-0.416055	 0.019853	-5.925333	-3.842477	-12.748150	-2.402972	 25.731240	 1.317508	 15.788830	 44.726470	-11.742040	-8.530013	 23.728230	-1.210193
-0.063764	 1.189288	-1.571731	-3.244359	 1.250883	-174.027700	 171.498100	 8.538488	-5.525875	 6.265580	-39.467630	 7.326299	 58.270550	 88.210640	-50.997010	 1.522418	 31.366270	-2.816435	 174.049900	 12.655010	 8.503727	-6.907891	-57.776500	 5.504113	 121.715300	 85.567250	-114.417900	-1.672950	 33.190120	 2.888397	-1.436968	 8.513844	-2.885425	 0.372134	 3.547055	-0.829086	-0.228298	-3.965491	-0.752593	-121.355600	 7.549600	 94.098110	 18.665580	 46.367910	-2.499481	 16.387880	-0.836439	 0.036597	 11.802630	-19.228850	 5.294602	 4.640462	 18.909950	-1.663654	-5.863809	 21.517760	 2.378848	 5.333543	 4.387209	-0.168181	-0.170678	-5.020305	-0.134094	-2.068833	-2.088871	-3.145165	 118.406400	-0.087640	-90.791470	 7.594517	 52.475500	-11.367110	-11.338950	-0.443244	 0.014568	-5.478435	-4.105655	-12.886060	-2.379103	 25.553310	 1.304781	 15.744240	 44.552830	-11.673140	-8.530646	 23.549620	-1.198307
-0.063638	 1.189086	-1.574696	-3.263892	 1.174932	-173.958600	 171.495400	 8.344021	-5.469765	 6.239125	-39.349200	 7.377171	 60.533080	 88.177470	-53.269240	 1.527204	 31.425650	-2.818696	 173.853000	 13.641910	 8.729513	-7.120976	-58.441560	 5.377663	 129.968700	 84.948710	-122.372100	-1.675035	 33.215030	 2.889442	-1.435353	 8.464645	-2.945098	 0.360828	 3.553900	-0.849215	-0.225702	-3.982406	-0.756464	-121.354100	 7.609034	 94.127620	 18.312840	 46.203410	-2.128963	 17.504610	-0.891717	 0.053406	 11.562620	-19.831990	 5.267416	 4.648144	 18.935130	-1.667755	-5.863743	 21.539890	 2.381291	 5.334494	 4.409461	-0.167778	-0.171765	-5.025360	-0.129095	-2.050438	-2.114611	-3.147793	 118.398100	-0.122685	-90.775010	 8.498438	 52.430110	-11.978660	-12.065390	-0.471189	 0.008706	-5.027855	-4.416417	-13.050770	-2.351422	 25.346220	 1.290095	 15.692880	 44.350710	-11.593450	-8.531332	 23.341750	-1.184497
